<?xml version="1.0" encoding="utf-8"?>
<svg version="1.1" id="Layer_1" xmlns="http://www.w3.org/2000/svg" xmlns:xlink="http://www.w3.org/1999/xlink" viewBox="0 0 630 10620" xml:space="preserve">
<style type="text/css">
	.st0{fill:#FFFFFF;}
</style>
<g>
	<g>
		<path class="st0" d="M630,8141.96c0,826.03,0,1652.06,0,2478.04c-210.19,0-420.09,0-630,0c0-118.02,0-235.99,0-353.96
			c11.42,0,22.85,0,34.56,0c-3.26-6.92-7.39-12.6-8.43-18.79c-1.03-6.12,1.05-12.77,1.92-20.59c-9.25-1.52-18.65-3.07-28.05-4.62
			c0-103.34,0-206.67,0-310.01c26.09,0,52.18,0,80.02,0c-7.29-10.78-10.05-21.01-3.92-31.54c-1.62-1.23-2.33-2.21-3.16-2.33
			c-24.31-3.43-48.63-6.78-72.94-10.14c0-103.34,0-206.67,0-310.01c0.99,0.1,1.99,0.28,2.98,0.28c51.98,0.02,103.96,0.04,155.93,0
			c1.77,0,3.55-0.57,6-1c-4.79-9.14-4.24-17.84-0.46-27.66c-5.11-0.75-9.22-1.76-13.35-1.89c-50.64-1.65-101.08-5.4-151.11-13.73
			c0-103.34,0-206.67,0-310.01c1.33,0.1,2.65,0.3,3.98,0.3c71.55,0.02,143.11,0.03,214.66,0c2.28,0,4.55-0.36,6.09-0.49
			c0-9.21,0-17.94,0-26.8c-5.87-2.83-5.87-2.97-13.89-2.83c-42.96,0.74-85.86-0.62-128.63-4.54c-27.47-2.51-54.81-6.38-82.21-9.65
			c0-103.34,0-206.67,0-310.01c1.33,0.1,2.65,0.3,3.98,0.3c100.9,0.02,201.8,0.02,302.7-0.01c1.83,0,3.66-0.45,6.29-0.79
			c-4.31-9.08-5.9-17.68,0-27.76c-6.79-0.55-11.96-1.37-17.12-1.32c-71.58,0.67-143.19,1.71-214.58-4.96
			c-27.15-2.54-54.18-6.28-81.26-9.47c0-103.34,0-206.67,0-310.01c1.66,0.11,3.32,0.3,4.98,0.3c153.89,0.02,307.79,0.02,461.68-0.01
			c2.11,0,4.22-0.46,5.75-0.64c-4.61-7.39-9.69-13.94-13.02-21.29c-3.78-8.37,3.65-15.42,5.69-24.32c-3.9,0.32-6.82,0.3-9.63,0.84
			c-6.86,1.31-13.72,2.71-20.5,4.38c-21.7,5.34-43.62,10.1-65.94,10.46c-60.6,0.98-121.21,1.22-181.81,1.35
			c-42.65,0.09-85.19-2.69-127.64-6.83c-19.87-1.94-39.71-4.15-59.56-6.24c0-104,0-208.01,0-312.01c3.32,0.11,6.64,0.31,9.97,0.31
			c203.36,0.02,406.71,0.01,610.07,0C623.36,8142.28,626.68,8142.07,630,8141.96z"/>
		<path d="M630,533.7c0,58,0,116,0,174.01c-32.97,0.11-65.95,0.93-98.88-0.06c-11.37-0.34-16.34,4.86-20.46,13.31
			c-1.45,2.97-2.5,6.18-3.3,9.39c-1.76,7.1-3.46,14.23-4.78,21.42c-4.43,24.26-16.83,43.06-37.66,56.38
			c-4.47,2.86-8.78,6.1-12.65,9.72c-8.57,8.01-9.41,16.32-2.18,25.63c3.84,4.95,8.41,9.55,13.4,13.33
			c26.13,19.8,54.14,36.32,85.08,47.59c12.74,4.64,25.95,7.3,39.21,4.66c14.26-2.84,28.17-7.49,42.23-11.36
			c0,54.67,0,109.34,0,164.01c-3.99,0.11-7.99,0.31-11.98,0.31c-70.66,0.02-141.32,0.11-211.99-0.14
			c-6.61-0.02-10.73,1.61-13.02,7.92c-7.7,21.25-16.63,42.13-23.04,63.76c-5.36,18.09,1,29.79,17.39,39.17
			c22.26,12.74,44.5,25.51,66.8,38.18c29.28,16.63,59.12,32.06,90.99,43.32c20.49,7.24,40.98,8.14,61.82,2.08
			c7.67-2.23,15.35-4.39,23.03-6.58c0,55.34,0,110.67,0,166.01c-4.32,0.11-8.65,0.31-12.97,0.31
			c-143.23,0.02-286.46,0.18-429.69-0.28c-12.34-0.04-20.8,5.64-29.33,12.36c-5.22,4.12-4.86,8.11,0.96,12.07
			c4.62,3.15,9.85,5.53,15.05,7.65c29.88,12.19,59.96,23.92,89.73,36.38c25.16,10.53,49.83,22.24,75.01,32.72
			c35,14.56,70.12,28.87,105.49,42.52c31.96,12.33,64.18,24.01,96.55,35.2c17.79,6.15,36.4,8.33,55.16,4.84
			c11.43-2.13,22.7-5.14,34.04-7.76c0,59.34,0,118.67,0,178.01c-4.32,0.11-8.65,0.31-12.97,0.31
			c-197.54,0.02-395.09,0.03-592.63-0.05c-8.69,0-17.24-0.35-24.4,5.74C0,1183.93,0,592.13,0,0c210,0,420,0,630,0
			c0,117.77,0,235.73,0,353.69c-9.88,0-19.76,0-29.18,0c-6.14,11.16-5.28,21.73-3.77,32.29c1.98,13.84,2.77,27.62,1.61,41.67
			c-2.09,25.47-3.29,51.01-4.69,76.53c-0.25,4.61-0.11,9.35,0.63,13.9c1.47,8.95,6.76,14.5,15.69,15.58
			C616.77,534.44,623.43,533.73,630,533.7z"/>
		<path class="st0" d="M630,7787.95c0,110.67,0,221.34,0,332.01c-22.89-1.64-45.82-2.85-68.64-5.1
			c-12.53-1.24-24.94-3.96-37.29-6.56c-8.31-1.75-15.74-5.63-20.56-13.04c-3.03-4.65-7.05-5.51-12.08-4.56
			c-11.77,2.2-23.78,3.43-35.3,6.55c-39.09,10.58-78.84,16.02-119.27,16.05c-57.25,0.03-114.51,0.4-171.74-0.81
			c-36.89-0.78-73.75-3.8-110.58-6.43c-18.23-1.31-36.36-4.01-54.53-6.08c0-104,0-208.01,0-312.01c3.32,0.11,6.64,0.31,9.97,0.31
			c203.36,0.02,406.71,0.01,610.07,0C623.36,7788.26,626.68,7788.06,630,7787.95z M566.56,8003.24c4.36-0.92,7.71-1.23,10.76-2.37
			c5.66-2.11,8.81-6.82,8.66-12.04c-0.15-5.31-3.4-8.9-9.67-11.14c-6.64-2.37-13.09-1.38-19.41,0.91c-3.84,1.39-7.04,3.75-7.55,8.35
			c-0.55,5,0.79,9.62,5.14,12.06C558.39,8001.2,563.04,8002.06,566.56,8003.24z"/>
		<path class="st0" d="M630,7433.94c0,51.34,0,102.67,0,154.01c-20.31,0.02-40.62-0.16-60.92,0.15c-7.96,0.12-15.96,0.92-23.84,2.1
			c-9.25,1.39-18.23,3.98-25.87,9.82c-7.89,6.04-12.9,13.88-11.79,23.98c0.86,7.83,1.97,16.15,5.37,23.07
			c6.28,12.78,14.22,24.76,21.68,36.95c2.95,4.81,6.77,9.1,9.64,13.95c6.81,11.51,5.07,19.58-6.91,25.48
			c-9.15,4.5-19.09,7.91-29.05,10.16c-29.52,6.67-59.29,12.27-88.85,18.77c-27.54,6.06-55.54,6.85-83.46,7.05
			c-90.24,0.65-180.54,2.74-270.58-5.78c-21.85-2.07-43.62-5.11-65.42-7.71c0-104,0-208.01,0-312.01c3.32,0.11,6.64,0.31,9.97,0.31
			c203.36,0.02,406.71,0.01,610.07,0C623.36,7434.25,626.68,7434.05,630,7433.94z"/>
		<path class="st0" d="M630,7079.93c0,44.67,0,89.34,0,134c-1.67-0.02-3.33-0.03-5-0.07c-27.97-0.59-55.95-1.67-83.92-1.55
			c-11.21,0.05-22.46,2.48-33.6,4.39c-4.51,0.77-8.91,2.57-9.92,8.4c-3.02,17.46-5.77,34.87-1.98,52.58
			c2.65,12.37,5.6,24.71,7.5,37.2c4.83,31.75-0.67,55.37-38.94,71.6c-3.06,1.3-6.24,2.33-9.42,3.3
			c-34.67,10.6-70.26,15.64-106.4,15.71c-68.99,0.15-137.98-0.07-206.96-0.89c-44-0.53-87.82-4.56-131.44-10.44
			c-3.26-0.44-6.61-0.17-9.92-0.23c0-104.67,0-209.34,0-314.01c3.32,0.11,6.64,0.31,9.97,0.31c203.36,0.02,406.71,0.01,610.07,0
			C623.36,7080.24,626.68,7080.04,630,7079.93z"/>
		<path class="st0" d="M0,7039.93c0-104.67,0-209.34,0-314.01c3.32,0.11,6.64,0.31,9.97,0.31c203.36,0.02,406.71,0.01,610.07,0
			c3.32,0,6.64-0.2,9.97-0.31c0,44.67,0,89.34,0,134c-2.66-0.1-5.32-0.25-7.98-0.31c-26.6-0.55-53.21-1.59-79.81-1.42
			c-15.01,0.1-29.79,3.29-43.61,9.57c-20.09,9.13-31.04,24.5-30.86,46.95c0.06,6.97,0.85,13.94,1.21,20.91
			c0.47,8.97,1.06,17.93,1.19,26.91c0.14,9.64-2.89,18.35-9.16,25.77c-4.21,4.99-6.63,10.53-7.11,17.17
			c-0.88,12-6.91,21.32-16.15,28.72c-7.71,6.18-16.67,9.63-26.22,11.62c-22.27,4.63-44.91,5.61-67.53,5.83
			c-47.27,0.45-94.55,0.4-141.83,0.54c-47.96,0.14-95.86-1.48-143.62-6.06C39.01,7044.24,19.51,7042,0,7039.93z"/>
		<path class="st0" d="M630,6371.9c0,45.33,0,90.67,0,136c-13.25-1.2-26.48-2.93-39.76-3.48c-25.72-1.06-51.41-0.15-76.13,7.98
			c-26.62,8.75-42.39,26.83-44.59,55.35c-0.92,11.94-1.07,23.95-1.53,35.93c-0.72,18.66-9.77,31.39-27.19,38.05
			c-4.34,1.66-8.79,3.16-13.31,4.23c-27.72,6.56-55.9,9.19-84.3,8.15c-35.96-1.31-71.89-3.39-107.84-5.01
			c-4.6-0.21-9.23,0.39-13.85,0.61c5.8,3.3,11.58,4.85,17.13,7.03c4.38,1.71,8.73,4.2,9.1,9.61c0.36,5.35-3.63,8.31-7.5,11.02
			c-1.9,1.33-3.95,2.57-6.1,3.38c-8.4,3.15-16.69,6.81-25.34,9.03c-28.31,7.27-57.27,9.05-86.31,7.44
			c-31.59-1.75-63.12-4.65-94.67-7.07c-9.27-0.71-18.53-1.49-27.79-2.23c0-105.34,0-210.67,0-316.01c3.32,0.11,6.64,0.31,9.97,0.31
			c203.36,0.02,406.71,0.01,610.07,0C623.36,6372.21,626.68,6372.01,630,6371.9z"/>
		<path d="M630,1935.75c0,62.67,0,125.34,0,188.01c-3.32,0.11-6.64,0.31-9.97,0.31c-203.36,0.02-406.71,0.02-610.07,0
			c-3.32,0-6.64-0.2-9.97-0.31c0-104,0-208.01,0-312.01c0.98-0.09,2.09-0.53,2.91-0.22c19.44,7.42,39.74,7.8,60.07,6.96
			c34.99-1.45,69.83-0.58,104.71,3.01c46.52,4.78,90.94,16.67,132.91,37.14c23.97,11.69,48.52,21.58,73.7,30.38
			c39.58,13.84,79.24,27.39,119.75,38.16c19.56,5.2,39.46,10.33,59.51,12.12c24.08,2.15,48.59,2.76,72.5-3.53
			C627.3,1935.45,628.69,1935.74,630,1935.75z"/>
		<path class="st0" d="M0,6331.9c0-104.67,0-209.34,0-314.01c3.32,0.11,6.64,0.31,9.97,0.31c203.36,0.02,406.71,0.01,610.07,0
			c3.32,0,6.64-0.2,9.97-0.31c0,46,0,92,0,138c-7.55-1.08-15.07-2.64-22.65-3.15c-29.02-1.99-57.92-1.68-86.13,6.74
			c-29.88,8.92-47.02,28.87-51.28,59.77c-1.41,10.21-2.58,20.46-3.66,30.71c-1.9,18.12-11.72,30.27-28.52,36.26
			c-9.65,3.44-19.79,5.88-29.9,7.58c-37.98,6.38-76.15,5.5-114.52,3.67c-49.87-2.37-99.84-2.7-149.77-3.83
			c-1.97-0.05-3.96,0.68-5.95,1.04c3.99,2.94,8.14,3.91,12.08,5.41c4.86,1.85,11.61,2.85,11.95,9.06c0.37,6.77-6.5,8.5-11.54,10.76
			c-3.93,1.76-8.11,2.99-12.25,4.22c-18.63,5.56-37.86,7.48-57.11,8.74C53.83,6334.65,26.87,6335.69,0,6331.9z"/>
		<path d="M0,2477.77c0-52,0-104,0-156.01c7.37-0.33,10.68-5.84,11.74-11.56c1.42-7.71,1.51-15.8,1.06-23.67
			c-0.53-9.27-2.61-18.45-3.36-27.72c-1.66-20.36,6.41-36.19,23.1-47.87c12.43-8.7,26.1-14.84,40.6-18.74
			c19.91-5.35,40.01-10,60.13-14.49c5.44-1.21,11.26-1.26,16.87-1.04c52.08,2.12,100.83,16.26,147.17,39.94
			c18.02,9.21,36.44,18.45,55.71,24.21c43.64,13.05,87.63,25.23,132.81,32.13c21.74,3.32,43.49,6.37,65.58,3.03
			c18.5-2.8,37.08-3.18,55.78-2.23c7.55,0.38,15.2-1.27,22.8-2c0,68.67,0,137.34,0,206.01c-3.32,0.11-6.64,0.31-9.97,0.31
			c-203.36,0.02-406.71,0.02-610.07,0C6.64,2478.08,3.32,2477.87,0,2477.77z"/>
		<path class="st0" d="M630,5663.88c0,46.67,0,93.34,0,140c-9.26-1.09-18.49-2.56-27.78-3.21c-23.37-1.62-46.61-0.74-69.47,5.08
			c-32.49,8.27-54.3,27.23-61.45,61.01c-1.86,8.79-4.06,17.51-5.66,26.35c-3.57,19.65-14.93,32.21-33.82,38.17
			c-3.17,1-6.35,2.01-9.58,2.81c-36.24,9-73.07,10.41-110.17,8.91c-28.63-1.16-57.27-2.25-85.92-2.7
			c-37.98-0.59-75.98-0.82-113.96-0.59c-11.91,0.07-23.92,1.44-35.68,3.39c-25.36,4.21-50.74,7.52-76.51,6.77
			c0-95.34,0-190.67,0-286.01c3.32,0.11,6.64,0.31,9.97,0.31c203.36,0.02,406.71,0.01,610.07,0
			C623.36,5664.19,626.68,5663.99,630,5663.88z"/>
		<path class="st0" d="M630,5309.86c0,48,0,96,0,144c-29.74-5.61-59.51-6.51-89.18,0.22c-32.49,7.36-55.78,25.67-67.04,57.79
			c-3.19,9.1-6.54,18.14-9.48,27.31c-6,18.66-19.06,30-37.1,36.15c-5.65,1.92-11.46,3.55-17.32,4.65
			c-34.82,6.52-69.9,8.51-105.32,6.68c-21.26-1.1-42.59-1.04-63.88-0.97c-42.92,0.14-85.84,0.92-128.75,0.92
			c-37.62,0-75.23-0.85-111.93-10.74c0-88.67,0-177.34,0-266.01c3.32,0.11,6.64,0.31,9.97,0.31c203.36,0.02,406.71,0.01,610.07,0
			C623.36,5310.18,626.68,5309.97,630,5309.86z"/>
		<path class="st0" d="M630,4955.85c0,49.34,0,98.67,0,148.01c-3.95-0.31-7.92-0.43-11.85-0.95c-19.85-2.63-39.66-4.29-59.66-1.14
			c-37.72,5.94-66.5,24.04-82.89,59.57c-3.34,7.25-7.07,14.32-10.6,21.48c-8.9,18.08-23.05,30.19-42.5,35.04
			c-16.41,4.09-33.1,7.34-49.82,9.88c-23.43,3.55-47.09,3-70.75,2.53c-28.95-0.57-57.94,0.38-86.88-0.46
			c-12.49-0.36-24.95-3.32-37.32-5.62c-3.43-0.64-7.48-2.35-9.55-4.92c-4.16-5.16-9.22-5.85-15.06-5.68
			c-51.34,1.54-102.5,0.28-153.1-9.73c0-82.67,0-165.34,0-248.01c3.32,0.11,6.64,0.31,9.97,0.31c203.36,0.02,406.71,0.01,610.07,0
			C623.36,4956.16,626.68,4955.96,630,4955.85z"/>
		<path class="st0" d="M630,4601.84c0,55.34,0,110.67,0,166.01c-6.86-1.06-13.77-1.87-20.57-3.23
			c-43.51-8.67-80.97,2.72-112.61,33.65c-8.33,8.15-16.53,16.43-24.89,24.54c-27.98,27.15-61.71,39.94-100.45,38.89
			c-7.69-0.21-15.82-2.66-22.8-6.02c-9.35-4.5-11.28-13.26-5.38-21.79c3.92-5.67,9.39-10.26,14.12-15.37
			c1.56-1.69,2.97-3.53,4.45-5.3c-7.1,0.65-12.9,3.02-18.9,4.64c-26.64,7.2-53.42,13.91-80.01,21.31
			c-53.29,14.83-107.52,21.5-162.82,20.75c-33.71-0.46-67.14-2.8-100.13-10.05c0-82.67,0-165.34,0-248.01
			c3.32,0.11,6.64,0.31,9.97,0.31c203.36,0.02,406.71,0.01,610.07,0C623.36,4602.15,626.68,4601.95,630,4601.84z"/>
		<path class="st0" d="M0,4495.84c0-82.67,0-165.34,0-248.01c3.32,0.11,6.64,0.31,9.97,0.31c203.36,0.02,406.71,0.01,610.07,0
			c3.32,0,6.64-0.2,9.97-0.31c0,60.67,0,121.34,0,182.01c-7.45-1.69-14.93-3.3-22.36-5.09c-26.19-6.31-51.56-4.44-75.9,7.56
			c-9.25,4.56-18.43,9.29-27.58,14.05c-12.15,6.32-24.53,12.24-38.14,14.37c-6.43,1-13.37,1.16-19.69-0.17
			c-8.65-1.81-11.96-8.23-9.54-16.69c1.35-4.73,3.58-9.34,6.08-13.6c7.2-12.28,17.54-21.67,28.83-30.11
			c2.26-1.69,4.38-3.57,6.56-5.36c-0.34-0.59-0.67-1.18-1.01-1.77c-2.93,1.17-6.02,2.06-8.77,3.57
			c-12.85,7.03-25.87,13.79-38.33,21.46c-31.71,19.51-65.51,33.99-101.41,43.73c-21.51,5.84-43.03,11.7-64.35,18.19
			c-36.71,11.16-73.8,20.03-112.23,22.82c-35.29,2.56-70.56,2.66-105.78-0.33C30.85,4501.13,15.46,4498.09,0,4495.84z"/>
		<path class="st0" d="M0,4139.82c0-82,0-164.01,0-246.01c3.32,0.11,6.64,0.31,9.97,0.31c203.36,0.02,406.71,0.02,610.07,0
			c3.32,0,6.64-0.2,9.97-0.31c0,54,0,108,0,162.01c-2.88-0.76-5.85-1.25-8.61-2.31c-25.99-9.98-52.81-13.1-80.44-10.3
			c-5.61,0.57-11.34,0.75-16.95,0.32c-4.22-0.33-9.04-0.91-12.35-3.19c-5.86-4.04-11.12-3.23-16.92-0.82
			c-17.19,7.16-34.64,13.75-51.57,21.48c-30.34,13.86-61.64,24.85-93.67,34.09c-33.86,9.76-67.39,20.67-101.25,30.43
			c-21.06,6.07-42.27,11.99-63.77,16.12c-37.74,7.26-76.07,7.93-114.4,6.95C46.44,4147.99,22.85,4146.82,0,4139.82z"/>
		<path d="M0,2831.78c0-39.33,0-78.67,0-118c1.33,0.07,2.68,0.03,3.99,0.21c39.27,5.46,76.16-2.09,111-20.47
			c4.66-2.46,9.14-5.57,13.08-9.07c10.13-9.01,10.07-14.86,0.04-23.81c-5.46-4.88-11.67-8.97-16.78-14.16
			c-5.79-5.88-11.69-12.03-15.81-19.07c-6.24-10.68-2.06-20.3,9.44-24.88c2.16-0.86,4.41-1.62,6.69-2
			c22.43-3.73,56.85,4.87,64.66,41.07c0.42,1.95,0.99,3.87,1.41,5.83c1.67,7.82,6.6,11.88,14.39,13.12
			c11.77,1.87,22.42-1.41,32.6-6.81c26.36-13.99,38.83-41.33,31.05-67.75c-3.75-12.74-11.86-22.08-22.47-29.65
			c-3.87-2.76-8.74-4.48-12.56-11.1c5.71,1.44,9.62,1.86,13.05,3.38c21.87,9.73,43.84,19.26,65.35,29.73
			c17.98,8.75,35.56,18.41,55.41,22.2c38.87,7.43,77.44,16.76,117.21,18.56c21.03,0.95,41.87,0.7,62.45-4.8
			c12.84-3.43,25.85-7.29,38.99-8.25c18.84-1.38,37.87-0.3,56.81-0.27c0,75.34,0,150.67,0,226.01c-3.32,0.11-6.64,0.31-9.97,0.31
			c-203.36,0.02-406.71,0.02-610.07,0C6.64,2832.09,3.32,2831.89,0,2831.78z"/>
		<path class="st0" d="M0,3785.81c0-82,0-164.01,0-246.01c3.32,0.11,6.64,0.31,9.97,0.31c203.36,0.02,406.71,0.01,610.07,0
			c3.32,0,6.64-0.2,9.97-0.31c0,44.67,0,89.34,0,134c-3.3,0.1-6.61,0.44-9.9,0.26c-30.82-1.68-61.16,0.92-90.79,10.03
			c-12.08,3.72-24.22,7.23-36.29,10.98c-44.14,13.71-88.01,28.52-133.42,37.51c-39.63,7.85-77.88,19.91-115.64,33.99
			c-13.07,4.88-26.3,9.7-39.86,12.83c-58.54,13.54-117.81,16.54-177.53,10.47C17.67,3788.98,8.86,3787.19,0,3785.81z"/>
		<path class="st0" d="M0,3429.8c0-81.34,0-162.67,0-244.01c3.32,0.11,6.64,0.31,9.97,0.31c203.36,0.02,406.71,0.02,610.07,0
			c3.32,0,6.64-0.2,9.97-0.31c0,29.33,0,58.67,0,88c-43.09-7.43-114.71,9.64-125.42,24.51c2.28,1.3,4.53,2.5,6.71,3.84
			c7.05,4.32,8.38,8.89,3.64,15.74c-2.79,4.03-6.49,7.58-10.3,10.71c-13.05,10.72-28.5,17.02-44.08,22.92
			c-32.29,12.24-66.22,17.5-100.15,22.12c-38.85,5.28-76.06,15.68-112.46,30.06c-20.04,7.92-40.74,14.5-61.6,19.96
			c-28.08,7.36-57.05,9.14-85.99,10.86C66.69,3436.51,33.17,3437.44,0,3429.8z"/>
		<path d="M630,3185.79c-3.32,0.11-6.64,0.31-9.97,0.31c-203.36,0.02-406.71,0.02-610.07,0c-3.32,0-6.64-0.2-9.97-0.31
			c0-38,0-76,0-114c3.3,0.16,6.6,0.41,9.9,0.47c16.95,0.31,34.17,2.58,50.8,0.42c31.32-4.06,62.44-10.03,93.39-16.39
			c39.19-8.06,76.84-21.68,114.58-34.7c9.57-3.3,18.49-9.17,26.85-15.07c9.77-6.9,14.83-17.2,14.5-29.28
			c-0.22-7.91-1.91-15.78-2.79-23.68c-0.26-2.36-0.04-4.77-0.04-8.18c3.71,1.17,6.26,1.71,8.59,2.75
			c13.81,6.15,28.3,9.85,43.24,11.72c15.86,1.99,31.75,3.75,47.65,5.33c28.61,2.84,57.32,3.62,85.67-1.51
			c15.3-2.77,30.28-7.71,45.12-12.55c30.23-9.85,60.9-14.04,92.53-9.33C630,3023.12,630,3104.45,630,3185.79z"/>
		<path class="st0" d="M630,2941.78c-31.63-4.71-62.31-0.52-92.53,9.33c-14.84,4.84-29.82,9.78-45.12,12.55
			c-28.35,5.13-57.06,4.35-85.67,1.51c-15.9-1.58-31.79-3.35-47.65-5.33c-14.94-1.87-29.43-5.57-43.24-11.72
			c-2.33-1.04-4.88-1.58-8.59-2.75c0,3.42-0.22,5.83,0.04,8.18c0.89,7.9,2.57,15.77,2.79,23.68c0.34,12.08-4.72,22.38-14.5,29.28
			c-8.36,5.9-17.29,11.77-26.85,15.07c-37.74,13.02-75.39,26.63-114.58,34.7c-30.96,6.37-62.07,12.34-93.39,16.39
			c-16.64,2.16-33.85-0.11-50.8-0.42c-3.3-0.06-6.6-0.31-9.9-0.47c0-80,0-160.01,0-240.01c3.32,0.11,6.64,0.31,9.97,0.31
			c203.36,0.02,406.71,0.02,610.07,0c3.32,0,6.64-0.2,9.97-0.31C630,2868.45,630,2905.11,630,2941.78z"/>
		<path d="M0,3429.8c33.17,7.64,66.69,6.71,100.37,4.72c28.95-1.71,57.91-3.5,85.99-10.86c20.85-5.46,41.55-12.05,61.6-19.96
			c36.4-14.38,73.61-24.78,112.46-30.06c33.92-4.61,67.85-9.88,100.15-22.12c15.58-5.91,31.03-12.2,44.08-22.92
			c3.81-3.13,7.51-6.68,10.3-10.71c4.74-6.85,3.4-11.41-3.64-15.74c-2.18-1.33-4.43-2.54-6.71-3.84
			c10.7-14.87,82.32-31.94,125.42-24.51c0,88.67,0,177.34,0,266.01c-3.32,0.11-6.64,0.31-9.97,0.31
			c-203.36,0.02-406.71,0.02-610.07,0c-3.32,0-6.64-0.2-9.97-0.31C0,3503.13,0,3466.47,0,3429.8z"/>
		<path d="M0,3785.81c8.86,1.38,17.67,3.17,26.58,4.08c59.73,6.07,119,3.07,177.53-10.47c13.56-3.14,26.79-7.96,39.86-12.83
			c37.75-14.08,76.01-26.15,115.64-33.99c45.41-8.99,89.28-23.79,133.42-37.51c12.07-3.75,24.21-7.27,36.29-10.98
			c29.63-9.12,59.96-11.71,90.79-10.03c3.28,0.18,6.6-0.16,9.9-0.26c0,73.34,0,146.67,0,220.01c-3.32,0.11-6.64,0.31-9.97,0.31
			c-203.36,0.02-406.71,0.02-610.07,0c-3.32,0-6.64-0.2-9.97-0.31C0,3857.81,0,3821.81,0,3785.81z"/>
		<path class="st0" d="M630,2605.77c-18.95-0.03-37.97-1.11-56.81,0.27c-13.13,0.96-26.15,4.82-38.99,8.25
			c-20.58,5.5-41.42,5.75-62.45,4.8c-39.78-1.8-78.35-11.13-117.21-18.56c-19.85-3.79-37.43-13.46-55.41-22.2
			c-21.51-10.46-43.49-20-65.35-29.73c-3.42-1.52-7.33-1.94-13.05-3.38c3.83,6.62,8.69,8.34,12.56,11.1
			c10.61,7.57,18.73,16.91,22.47,29.65c7.77,26.42-4.69,53.76-31.05,67.75c-10.18,5.4-20.83,8.68-32.6,6.81
			c-7.79-1.23-12.72-5.3-14.39-13.12c-0.42-1.95-0.99-3.87-1.41-5.83c-7.81-36.2-42.23-44.8-64.66-41.07
			c-2.28,0.38-4.53,1.14-6.69,2c-11.5,4.58-15.68,14.21-9.44,24.88c4.12,7.05,10.02,13.2,15.81,19.07
			c5.11,5.19,11.32,9.28,16.78,14.16c10.03,8.96,10.09,14.8-0.04,23.81c-3.94,3.5-8.41,6.61-13.08,9.07
			c-34.84,18.38-71.73,25.92-111,20.47c-1.31-0.18-2.66-0.15-3.99-0.21c0-78.67,0-157.34,0-236.01c3.32,0.11,6.64,0.31,9.97,0.31
			c203.36,0.02,406.71,0.02,610.07,0c3.32,0,6.64-0.2,9.97-0.31C630,2520.43,630,2563.1,630,2605.77z"/>
		<path d="M0,4139.82c22.85,7,46.44,8.17,70.07,8.77c38.33,0.98,76.66,0.31,114.4-6.95c21.5-4.13,42.71-10.05,63.77-16.12
			c33.86-9.76,67.39-20.67,101.25-30.43c32.03-9.23,63.32-20.23,93.67-34.09c16.93-7.73,34.38-14.32,51.57-21.48
			c5.8-2.42,11.06-3.22,16.92,0.82c3.31,2.28,8.13,2.86,12.35,3.19c5.61,0.43,11.34,0.25,16.95-0.32
			c27.63-2.8,54.46,0.32,80.44,10.3c2.76,1.06,5.74,1.55,8.61,2.31c0,64,0,128,0,192.01c-3.32,0.11-6.64,0.31-9.97,0.31
			c-203.36,0.01-406.71,0.02-610.07,0c-3.32,0-6.64-0.2-9.97-0.31C0,4211.83,0,4175.82,0,4139.82z"/>
		<path d="M0,4495.84c15.46,2.26,30.85,5.29,46.39,6.61c35.22,2.99,70.49,2.89,105.78,0.33c38.42-2.79,75.52-11.66,112.23-22.82
			c21.32-6.48,42.84-12.35,64.35-18.19c35.91-9.74,69.7-24.22,101.41-43.73c12.46-7.67,25.49-14.43,38.33-21.46
			c2.75-1.5,5.84-2.39,8.77-3.57c0.34,0.59,0.67,1.18,1.01,1.77c-2.18,1.79-4.3,3.67-6.56,5.36c-11.29,8.44-21.63,17.82-28.83,30.11
			c-2.5,4.27-4.72,8.87-6.08,13.6c-2.42,8.47,0.88,14.88,9.54,16.69c6.32,1.32,13.26,1.17,19.69,0.17
			c13.61-2.12,25.99-8.04,38.14-14.37c9.15-4.76,18.32-9.49,27.58-14.05c24.34-12,49.71-13.87,75.9-7.56
			c7.43,1.79,14.9,3.4,22.36,5.09c0,57.34,0,114.67,0,172.01c-3.32,0.11-6.64,0.31-9.97,0.31c-203.36,0.01-406.71,0.02-610.07,0
			c-3.32,0-6.64-0.2-9.97-0.31C0,4566.5,0,4531.17,0,4495.84z"/>
		<path d="M0,4849.85c32.99,7.25,66.42,9.59,100.13,10.05c55.3,0.75,109.53-5.92,162.82-20.75c26.59-7.4,53.36-14.11,80.01-21.31
			c6-1.62,11.8-3.99,18.9-4.64c-1.48,1.77-2.88,3.61-4.45,5.3c-4.73,5.12-10.2,9.7-14.12,15.37c-5.9,8.53-3.97,17.29,5.38,21.79
			c6.99,3.36,15.11,5.82,22.8,6.02c38.74,1.05,72.47-11.73,100.45-38.89c8.36-8.11,16.56-16.4,24.89-24.54
			c31.64-30.93,69.1-42.33,112.61-33.65c6.8,1.36,13.71,2.17,20.57,3.23c0,62.67,0,125.34,0,188.01c-3.32,0.11-6.64,0.31-9.97,0.31
			c-203.36,0.01-406.71,0.02-610.07,0c-3.32,0-6.64-0.2-9.97-0.31C0,4920.52,0,4885.18,0,4849.85z"/>
		<path d="M0,5203.86c50.6,10.01,101.77,11.27,153.1,9.73c5.84-0.17,10.9,0.52,15.06,5.68c2.07,2.58,6.12,4.29,9.55,4.92
			c12.38,2.3,24.83,5.26,37.32,5.62c28.94,0.84,57.93-0.11,86.88,0.46c23.66,0.46,47.32,1.02,70.75-2.53
			c16.73-2.54,33.41-5.78,49.82-9.88c19.46-4.85,33.61-16.96,42.5-35.04c3.52-7.16,7.25-14.23,10.6-21.48
			c16.4-35.54,45.17-53.63,82.89-59.57c20.01-3.15,39.81-1.49,59.66,1.14c3.92,0.52,7.9,0.65,11.85,0.95c0,68.67,0,137.34,0,206.01
			c-3.32,0.11-6.64,0.31-9.97,0.31c-203.36,0.01-406.71,0.02-610.07,0c-3.32,0-6.64-0.2-9.97-0.31C0,5274.53,0,5239.2,0,5203.86z"/>
		<path d="M0,5575.87c36.7,9.9,74.31,10.75,111.93,10.74c42.92,0,85.84-0.78,128.75-0.92c21.3-0.07,42.63-0.12,63.88,0.97
			c35.41,1.83,70.49-0.16,105.32-6.68c5.86-1.1,11.67-2.72,17.32-4.65c18.04-6.14,31.1-17.49,37.1-36.15
			c2.95-9.17,6.3-18.22,9.48-27.31c11.26-32.12,34.55-50.43,67.04-57.79c29.67-6.72,59.44-5.82,89.18-0.22c0,70,0,140,0,210.01
			c-3.32,0.11-6.64,0.31-9.97,0.31c-203.36,0.01-406.71,0.02-610.07,0c-3.32,0-6.64-0.2-9.97-0.31C0,5634.54,0,5605.21,0,5575.87z"
			/>
		<path d="M0,5949.89c25.77,0.75,51.15-2.55,76.51-6.77c11.77-1.95,23.77-3.32,35.68-3.39c37.99-0.23,75.98-0.01,113.96,0.59
			c28.65,0.45,57.29,1.55,85.92,2.7c37.11,1.5,73.94,0.08,110.17-8.91c3.23-0.8,6.41-1.81,9.58-2.81
			c18.9-5.96,30.26-18.53,33.82-38.17c1.6-8.83,3.8-17.56,5.66-26.35c7.14-33.78,28.96-52.74,61.45-61.01
			c22.86-5.82,46.09-6.7,69.47-5.08c9.29,0.64,18.52,2.11,27.78,3.21c0,71.34,0,142.67,0,214.01c-3.32,0.11-6.64,0.31-9.97,0.31
			c-203.36,0.01-406.71,0.02-610.07,0c-3.32,0-6.64-0.2-9.97-0.31C0,5995.22,0,5972.55,0,5949.89z"/>
		<path class="st0" d="M630,2271.76c-7.6,0.73-15.26,2.38-22.8,2c-18.7-0.94-37.28-0.57-55.78,2.23
			c-22.08,3.34-43.83,0.29-65.58-3.03c-45.19-6.89-89.17-19.08-132.81-32.13c-19.27-5.76-37.69-15-55.71-24.21
			c-46.34-23.69-95.09-37.83-147.17-39.94c-5.61-0.23-11.44-0.18-16.87,1.04c-20.12,4.49-40.23,9.13-60.13,14.49
			c-14.5,3.9-28.17,10.04-40.6,18.74c-16.69,11.68-24.76,27.51-23.1,47.87c0.75,9.27,2.83,18.45,3.36,27.72
			c0.45,7.87,0.36,15.96-1.06,23.67c-1.05,5.72-4.37,11.24-11.74,11.56c0-66,0-132,0-198.01c3.32,0.11,6.64,0.31,9.97,0.31
			c203.36,0.02,406.71,0.01,610.07,0c3.32,0,6.64-0.2,9.97-0.31C630,2173.09,630,2222.42,630,2271.76z"/>
		<path d="M0,6331.9c26.87,3.79,53.83,2.75,80.75,0.98c19.25-1.26,38.49-3.19,57.11-8.74c4.14-1.23,8.32-2.46,12.25-4.22
			c5.04-2.26,11.9-3.98,11.54-10.76c-0.34-6.21-7.08-7.21-11.95-9.06c-3.94-1.5-8.08-2.47-12.08-5.41c1.98-0.37,3.97-1.09,5.95-1.04
			c49.93,1.13,99.9,1.46,149.77,3.83c38.37,1.83,76.54,2.71,114.52-3.67c10.12-1.7,20.25-4.14,29.9-7.58
			c16.8-5.99,26.62-18.14,28.52-36.26c1.08-10.25,2.25-20.5,3.66-30.71c4.25-30.89,21.39-50.85,51.28-59.77
			c28.22-8.42,57.11-8.73,86.13-6.74c7.59,0.52,15.1,2.08,22.65,3.15c0,72,0,144,0,216.01c-3.32,0.11-6.64,0.31-9.97,0.31
			c-203.36,0.01-406.71,0.02-610.07,0c-3.32,0-6.64-0.2-9.97-0.31C0,6358.57,0,6345.23,0,6331.9z"/>
		<path class="st0" d="M630,1935.75c-1.31-0.01-2.7-0.3-3.92,0.03c-23.91,6.29-48.43,5.67-72.5,3.53
			c-20.05-1.79-39.95-6.92-59.51-12.12c-40.51-10.77-80.17-24.32-119.75-38.16c-25.18-8.8-49.73-18.7-73.7-30.38
			c-41.98-20.47-86.39-32.36-132.91-37.14c-34.88-3.59-69.72-4.46-104.71-3.01c-20.33,0.84-40.63,0.46-60.07-6.96
			c-0.82-0.31-1.94,0.13-2.91,0.22c0-12,0-24,0-36c7.16-6.09,15.71-5.74,24.4-5.74c197.54,0.08,395.09,0.06,592.63,0.05
			c4.32,0,8.65-0.2,12.97-0.31C630,1825.08,630,1880.41,630,1935.75z"/>
		<path d="M0,6687.91c9.26,0.75,18.53,1.52,27.79,2.23c31.55,2.42,63.08,5.32,94.67,7.07c29.04,1.61,58-0.17,86.31-7.44
			c8.65-2.22,16.94-5.88,25.34-9.03c2.16-0.81,4.2-2.05,6.1-3.38c3.87-2.7,7.86-5.66,7.5-11.02c-0.36-5.42-4.72-7.9-9.1-9.61
			c-5.54-2.17-11.33-3.73-17.13-7.03c4.62-0.22,9.25-0.82,13.85-0.61c35.95,1.62,71.88,3.7,107.84,5.01
			c28.41,1.04,56.58-1.59,84.3-8.15c4.52-1.07,8.96-2.57,13.31-4.23c17.43-6.66,26.47-19.39,27.19-38.05
			c0.46-11.98,0.61-23.98,1.53-35.93c2.2-28.52,17.97-46.6,44.59-55.35c24.73-8.12,50.41-9.04,76.13-7.98
			c13.28,0.55,26.51,2.28,39.76,3.48c0,72.67,0,145.34,0,218.01c-3.32,0.11-6.64,0.31-9.97,0.31c-203.36,0.01-406.71,0.02-610.07,0
			c-3.32,0-6.64-0.2-9.97-0.31C0,6713.25,0,6700.58,0,6687.91z"/>
		<path class="st0" d="M630,1591.73c-11.34,2.62-22.61,5.63-34.04,7.76c-18.76,3.5-37.37,1.32-55.16-4.84
			c-32.37-11.19-64.59-22.87-96.55-35.2c-35.37-13.64-70.49-27.95-105.49-42.52c-25.18-10.48-49.85-22.19-75.01-32.72
			c-29.77-12.46-59.85-24.18-89.73-36.38c-5.2-2.12-10.43-4.51-15.05-7.65c-5.82-3.96-6.18-7.95-0.96-12.07
			c8.54-6.73,17-12.4,29.33-12.36c143.23,0.45,286.46,0.29,429.69,0.28c4.32,0,8.65-0.2,12.97-0.31
			C630,1474.4,630,1533.07,630,1591.73z"/>
		<path d="M0,7039.93c19.51,2.07,39.01,4.31,58.54,6.18c47.76,4.58,95.65,6.2,143.62,6.06c47.28-0.14,94.56-0.09,141.83-0.54
			c22.62-0.21,45.26-1.2,67.53-5.83c9.55-1.98,18.5-5.44,26.22-11.62c9.24-7.4,15.27-16.72,16.15-28.72
			c0.49-6.63,2.91-12.18,7.11-17.17c6.27-7.43,9.3-16.13,9.16-25.77c-0.13-8.97-0.73-17.94-1.19-26.91
			c-0.36-6.97-1.16-13.94-1.21-20.91c-0.18-22.45,10.77-37.82,30.86-46.95c13.82-6.28,28.6-9.48,43.61-9.57
			c26.6-0.17,53.21,0.88,79.81,1.42c2.66,0.05,5.32,0.2,7.98,0.31c0,73.34,0,146.67,0,220.01c-3.32,0.11-6.64,0.31-9.97,0.31
			c-203.36,0.01-406.71,0.02-610.07,0c-3.32,0-6.64-0.2-9.97-0.31C0,7066.59,0,7053.26,0,7039.93z"/>
		<path d="M0,7393.94c3.31,0.06,6.66-0.21,9.92,0.23c43.63,5.89,87.44,9.92,131.44,10.44c68.98,0.82,137.98,1.04,206.96,0.89
			c36.13-0.08,71.73-5.11,106.4-15.71c3.18-0.97,6.36-2.01,9.42-3.3c38.27-16.23,43.77-39.85,38.94-71.6
			c-1.9-12.49-4.85-24.83-7.5-37.2c-3.79-17.72-1.04-35.13,1.98-52.58c1.01-5.83,5.41-7.63,9.92-8.4
			c11.14-1.91,22.39-4.34,33.6-4.39c27.97-0.13,55.95,0.95,83.92,1.55c1.67,0.04,3.33,0.05,5,0.07c0,73.34,0,146.67,0,220.01
			c-3.32,0.11-6.64,0.31-9.97,0.31c-203.36,0.01-406.71,0.02-610.07,0c-3.32,0-6.64-0.2-9.97-0.31C0,7420.6,0,7407.27,0,7393.94z"/>
		<path class="st0" d="M630,1249.72c-7.68,2.19-15.36,4.35-23.03,6.58c-20.84,6.06-41.32,5.16-61.82-2.08
			c-31.87-11.26-61.71-26.69-90.99-43.32c-22.3-12.67-44.54-25.44-66.8-38.18c-16.38-9.38-22.75-21.08-17.39-39.17
			c6.41-21.63,15.33-42.51,23.04-63.76c2.29-6.31,6.41-7.94,13.02-7.92c70.66,0.25,141.32,0.16,211.99,0.14
			c3.99,0,7.99-0.2,11.98-0.31C630,1124.38,630,1187.05,630,1249.72z"/>
		<path d="M0,7745.95c21.81,2.59,43.57,5.64,65.42,7.71c90.04,8.52,180.34,6.44,270.58,5.78c27.92-0.2,55.92-0.98,83.46-7.05
			c29.56-6.51,59.32-12.1,88.85-18.77c9.96-2.25,19.9-5.66,29.05-10.16c11.98-5.9,13.72-13.97,6.91-25.48
			c-2.87-4.85-6.69-9.14-9.64-13.95c-7.46-12.19-15.4-24.16-21.68-36.95c-3.4-6.92-4.51-15.24-5.37-23.07
			c-1.11-10.1,3.89-17.94,11.79-23.98c7.63-5.84,16.61-8.43,25.87-9.82c7.88-1.18,15.88-1.99,23.84-2.1
			c20.3-0.3,40.61-0.13,60.92-0.15c0,66.67,0,133.34,0,200.01c-3.32,0.11-6.64,0.31-9.97,0.31c-203.36,0.01-406.71,0.02-610.07,0
			c-3.32,0-6.64-0.2-9.97-0.31C0,7773.95,0,7759.95,0,7745.95z"/>
		<path class="st0" d="M630,897.71c-14.06,3.86-27.96,8.52-42.23,11.36c-13.27,2.64-26.47-0.02-39.21-4.66
			c-30.94-11.27-58.95-27.79-85.08-47.59c-4.99-3.78-9.56-8.39-13.4-13.33c-7.23-9.31-6.39-17.62,2.18-25.63
			c3.87-3.62,8.19-6.86,12.65-9.72c20.83-13.32,33.23-32.12,37.66-56.38c1.31-7.19,3.02-14.32,4.78-21.42
			c0.79-3.21,1.85-6.43,3.3-9.39c4.12-8.45,9.09-13.65,20.46-13.31c32.93,1,65.92,0.17,98.88,0.06C630,771.04,630,834.37,630,897.71
			z"/>
		<path d="M0,8099.96c18.17,2.07,36.3,4.78,54.53,6.08c36.83,2.64,73.69,5.66,110.58,6.43c57.23,1.21,114.49,0.85,171.74,0.81
			c40.44-0.02,80.18-5.47,119.27-16.05c11.51-3.12,23.53-4.34,35.3-6.55c5.04-0.94,9.06-0.09,12.08,4.56
			c4.82,7.41,12.26,11.29,20.56,13.04c12.35,2.6,24.76,5.32,37.29,6.56c22.83,2.26,45.76,3.46,68.64,5.1c0,7.33,0,14.67,0,22
			c-3.32,0.11-6.64,0.31-9.97,0.31c-203.36,0.01-406.71,0.02-610.07,0c-3.32,0-6.64-0.2-9.97-0.31C0,8127.96,0,8113.96,0,8099.96z"
			/>
		<path d="M0,8453.97c19.85,2.09,39.69,4.3,59.56,6.24c42.44,4.14,84.98,6.92,127.64,6.83c60.61-0.13,121.22-0.36,181.81-1.35
			c22.32-0.36,44.24-5.12,65.94-10.46c6.78-1.67,13.64-3.07,20.5-4.38c2.81-0.54,5.73-0.52,9.63-0.84
			c-2.04,8.91-9.47,15.96-5.69,24.32c3.32,7.35,8.41,13.9,13.02,21.29c-1.53,0.18-3.64,0.64-5.75,0.64
			c-153.89,0.03-307.79,0.03-461.68,0.01c-1.66,0-3.32-0.2-4.98-0.3C0,8481.98,0,8467.98,0,8453.97z"/>
		<path d="M0,8805.99c27.08,3.19,54.12,6.94,81.26,9.47c71.4,6.67,143,5.63,214.58,4.96c5.16-0.05,10.33,0.77,17.12,1.32
			c-5.9,10.08-4.31,18.68,0,27.76c-2.62,0.34-4.45,0.79-6.29,0.79c-100.9,0.03-201.8,0.02-302.7,0.01c-1.33,0-2.65-0.19-3.98-0.3
			C0,8835.32,0,8820.65,0,8805.99z"/>
		<path d="M0,9160c27.4,3.26,54.74,7.13,82.21,9.65c42.77,3.91,85.67,5.28,128.63,4.54c8.02-0.14,8.02,0,13.89,2.83
			c0,8.85,0,17.58,0,26.8c-1.54,0.13-3.81,0.49-6.09,0.49c-71.55,0.03-143.11,0.02-214.66,0c-1.33,0-2.65-0.2-3.98-0.3
			C0,9189.33,0,9174.67,0,9160z"/>
		<path class="st0" d="M630,533.7c-6.57,0.04-13.23,0.74-19.7-0.05c-8.93-1.09-14.22-6.64-15.69-15.58
			c-0.75-4.55-0.89-9.28-0.63-13.9c1.4-25.52,2.6-51.06,4.69-76.53c1.15-14.05,0.37-27.82-1.61-41.67
			c-1.51-10.56-2.37-21.13,3.77-32.29c9.42,0,19.3,0,29.18,0C630,413.69,630,473.7,630,533.7z"/>
		<path d="M0,9514.01c50.03,8.33,100.47,12.08,151.11,13.73c4.13,0.13,8.24,1.14,13.35,1.89c-3.78,9.82-4.33,18.52,0.46,27.66
			c-2.46,0.42-4.23,1-6,1c-51.98,0.04-103.96,0.02-155.93,0c-0.99,0-1.99-0.18-2.98-0.28C0,9543.35,0,9528.68,0,9514.01z"/>
		<path d="M0,9868.02c24.32,3.36,48.64,6.71,72.94,10.14c0.83,0.12,1.54,1.1,3.16,2.33c-6.13,10.53-3.37,20.76,3.92,31.54
			c-27.84,0-53.93,0-80.02,0C0,9897.36,0,9882.69,0,9868.02z"/>
		<path d="M0,10222.04c9.4,1.55,18.8,3.09,28.05,4.62c-0.87,7.82-2.95,14.47-1.92,20.59c1.05,6.2,5.18,11.87,8.43,18.79
			c-11.71,0-23.14,0-34.56,0C0,10251.37,0,10236.7,0,10222.04z"/>
		<path d="M566.56,8003.24c-3.52-1.18-8.17-2.03-12.06-4.22c-4.35-2.44-5.69-7.06-5.14-12.06c0.51-4.6,3.71-6.96,7.55-8.35
			c6.32-2.29,12.77-3.28,19.41-0.91c6.27,2.24,9.52,5.83,9.67,11.14c0.14,5.22-3,9.93-8.66,12.04
			C574.27,8002,570.92,8002.31,566.56,8003.24z"/>
	</g>
</g>
</svg>
